<?xml version="1.0" standalone="no"?>
<!DOCTYPE svg PUBLIC "-//W3C//DTD SVG 20010904//EN"
 "http://www.w3.org/TR/2001/REC-SVG-20010904/DTD/svg10.dtd">
<svg version="1.0" xmlns="http://www.w3.org/2000/svg"
 width="980.000000pt" height="980.000000pt" viewBox="0 0 980.000000 980.000000"
 preserveAspectRatio="xMidYMid meet">
<metadata>
Created by potrace 1.11, written by Peter Selinger 2001-2013
</metadata>
<g transform="translate(0.000000,980.000000) scale(0.100000,-0.100000)"
fill="#000000" stroke="none">
<path d="M3245 9790 c-151 -7 -184 -15 -286 -66 -188 -94 -317 -275 -342 -481
-8 -73 -11 -1040 -12 -3763 l0 -3665 46 -95 c26 -52 67 -121 93 -152 54 -68
150 -149 214 -183 84 -43 106 -63 162 -147 96 -144 193 -198 370 -205 105 -5
143 -1 760 66 900 99 1562 144 2665 181 414 14 404 15 260 -26 -157 -45 -1362
-370 -2370 -639 -1305 -348 -1542 -406 -1681 -408 -62 -1 -79 3 -138 32 -74
38 -172 128 -209 193 -31 54 -38 79 -687 2493 -1116 4154 -1235 4616 -1216
4750 13 100 138 256 251 313 38 18 240 79 540 160 502 137 577 160 617 186 27
17 48 56 48 85 0 26 -65 81 -96 81 -46 0 -665 -161 -948 -246 -201 -61 -294
-98 -365 -145 -149 -99 -273 -354 -258 -529 12 -132 104 -494 573 -2255 679
-2544 1197 -4461 1313 -4865 35 -121 70 -177 169 -272 87 -84 173 -139 261
-168 64 -20 85 -22 199 -17 143 6 184 15 802 181 383 102 2835 759 3685 987
l520 139 150 0 c181 0 293 12 370 39 143 50 308 203 389 359 l46 90 0 3751 0
3751 -49 98 c-59 118 -114 192 -184 251 -63 53 -193 117 -267 133 -62 13
-5147 21 -5395 8z m5447 -243 c94 -58 166 -136 210 -225 l33 -67 3 -3703 2
-3703 -37 -67 c-47 -85 -141 -179 -218 -216 -48 -23 -80 -30 -165 -37 -58 -4
-1295 -8 -2750 -8 l-2645 -1 -70 46 c-94 61 -138 105 -190 189 l-43 70 -4
3020 c-2 1661 -1 3340 2 3730 l5 710 29 55 c38 72 135 166 216 210 l65 35 360
6 c198 3 1431 5 2740 5 l2380 -1 77 -48z"/>
<path d="M3377 9277 c-21 -15 -64 -109 -166 -360 -92 -229 -120 -281 -161
-302 -70 -36 -4 -71 117 -62 99 7 134 34 73 56 -39 13 -46 33 -31 90 17 67 39
81 128 81 86 0 109 -15 132 -88 14 -41 14 -43 -14 -72 -38 -40 -28 -57 41 -66
60 -7 197 -1 227 11 27 11 20 31 -17 53 -45 26 -60 58 -161 326 -92 243 -129
331 -143 340 -5 3 -16 0 -25 -7z m-22 -254 c15 -37 55 -157 55 -165 0 -11
-111 -10 -129 1 -15 10 -11 28 26 119 26 65 36 74 48 45z"/>
<path d="M3243 8177 c-137 -141 -159 -180 -151 -272 6 -69 45 -123 106 -145
41 -14 76 -10 133 14 15 7 15 2 1 -59 -19 -77 -14 -85 56 -85 53 0 58 11 37
85 -9 31 -15 58 -12 61 2 2 20 -3 40 -11 73 -30 141 -10 191 58 17 23 21 43
21 105 0 70 -3 81 -32 123 -31 44 -247 249 -262 249 -5 0 -62 -55 -128 -123z"/>
<path d="M5800 7384 c-145 -217 -323 -400 -800 -819 -510 -449 -605 -561 -698
-826 -60 -171 -77 -274 -77 -479 0 -208 12 -282 68 -410 110 -252 324 -431
603 -506 102 -27 330 -25 437 4 113 31 230 89 330 165 48 36 87 64 87 63 0
-20 -60 -289 -94 -421 -55 -212 -110 -383 -147 -459 -16 -32 -29 -61 -29 -66
0 -4 33 -1 73 7 124 23 413 28 561 9 71 -9 131 -14 134 -11 3 3 -2 27 -10 53
-9 26 -37 106 -61 179 -72 208 -167 603 -167 691 0 19 9 15 73 -39 85 -72 217
-139 337 -171 112 -30 339 -33 440 -5 153 41 352 164 456 281 66 74 138 200
169 298 41 129 57 398 34 564 -22 158 -131 429 -222 549 -62 83 -258 272 -472
455 -281 241 -457 404 -616 567 -153 158 -230 252 -278 343 -57 106 -48 107
-131 -16z"/>
<path d="M8323 3483 c-27 -5 -28 -14 -8 -79 8 -27 15 -52 15 -55 0 -4 -31 -4
-68 -1 -122 8 -183 -41 -190 -155 -6 -86 18 -123 169 -267 l122 -115 94 86
c94 87 160 159 182 200 14 28 14 140 0 182 -18 51 -75 75 -166 69 l-73 -5 6
36 c3 20 8 48 10 63 5 23 1 30 -21 38 -27 10 -33 10 -72 3z"/>
<path d="M8031 2493 c70 -73 74 -81 175 -346 94 -244 129 -320 147 -314 19 6
61 88 138 272 124 294 152 348 198 385 25 20 38 37 32 43 -13 13 -121 21 -185
13 -63 -8 -74 -28 -26 -45 25 -8 30 -15 30 -44 0 -41 -17 -96 -38 -120 -13
-15 -30 -17 -106 -15 l-89 3 -25 73 -24 74 28 29 c15 16 24 32 20 36 -4 5 -80
10 -169 12 l-162 3 56 -59z m446 -257 c-3 -8 -20 -49 -38 -92 -38 -90 -42 -88
-83 32 l-25 74 76 0 c61 0 74 -3 70 -14z"/>
<path d="M1397 7736 c-123 -35 -165 -58 -137 -76 8 -5 25 -10 38 -10 52 0 69
-41 149 -350 51 -198 64 -319 39 -360 -37 -60 -40 -70 -28 -82 17 -17 69 12
104 56 92 115 94 179 20 481 -70 287 -68 273 -38 318 14 21 26 42 26 47 0 17
-51 10 -173 -24z"/>
<path d="M1631 6777 c-5 -13 -36 -68 -70 -122 -122 -198 -133 -301 -41 -379
60 -50 150 -57 197 -14 32 30 43 15 43 -59 0 -63 1 -65 23 -59 12 3 39 9 60
12 46 8 47 21 7 86 -16 26 -30 50 -30 53 0 3 19 5 43 5 57 1 119 30 152 74 21
28 27 46 27 85 -1 102 -49 155 -235 258 -149 83 -165 89 -176 60z"/>
</g>
</svg>
